<?xml version="1.0" encoding="UTF-8"?>
<svg width="119px" height="187px" viewBox="0 0 119 187" version="1.1" xmlns="http://www.w3.org/2000/svg" xmlns:xlink="http://www.w3.org/1999/xlink">
    <!-- Generator: Sketch 46.2 (44496) - http://www.bohemiancoding.com/sketch -->
    <title>Group</title>
    <desc>Created with Sketch.</desc>
    <defs></defs>
    <g id="Page-1" stroke="none" stroke-width="1" fill="none" fill-rule="evenodd">
        <g id="Group" fill="#000000">
            <g id="eagled">
                <path d="M78,112.33885 L78,162 L70,162 L70,112.485109 C63.2073677,112.575278 55.8042655,112.596612 49,112.545741 L49,187 L41,187 L41,112.446234 C31.5644101,112.275113 24.7436035,111.928382 24.99562,111.39362 C28.49566,103.99562 28.59722,85.69462 28.59722,69.49562 L28.59722,61.99562 C28.59722,48.99562 34.39822,38.49562 44.89822,32.49562 C55.69922,26.29642 70.19942,25.79642 79.50022,31.29642 C83.90262,33.89842 86.70338,37.59762 87.60182,41.89842 C87.60182,41.99608 87.80104,42.09764 87.9026,42.09764 C89.4026,41.80076 91.0002,41.99998 92.6018,42.6992 C94.5002,43.5 95.80102,44.6992 96.6018,46.1992 C97.0002,46.8008 109.199,49.8008 112.69942,53.49882 C117.60182,58.60082 119.69942,66.89782 118.60962,78.09282 C118.50802,79.19044 117.71122,79.99122 116.60962,79.99122 C114.70722,79.99122 113.91038,78.19042 113.30882,76.79202 C113.20726,76.3936 113.00804,75.99126 112.80882,75.59282 C112.30882,74.69438 111.10566,74.29594 110.20722,74.69438 C106.60522,76.39758 100.30442,77.19442 93.10522,77.79598 C91.60522,77.89358 90.50362,79.19438 90.50362,80.69438 C90.70282,90.59238 91.40602,106.69438 93.80442,111.19438 C94.1183412,111.727795 87.375387,112.113394 78,112.33885 L78,112.33885 Z M41,65.699 L41.00016,65.69864 C41.00016,54.60064 45.89866,47.99894 50.60176,44.09664 C51.5002,43.49504 51.6018,42.19428 51.0002,41.29584 C50.3986,40.3974 49.19938,40.19818 48.3986,40.8974 C42.8984,45.1984 37.0976,52.8974 37.0976,65.6984 L37.0976,72.5968 C37.0976,83.3978 37,94.4996 35.8984,102.6988 C35.6992,103.6988 36.3984,104.69878 37.5,104.898 C38.6016,105.0972 39.60158,104.398 39.8008,103.2964 C40.89844,94.8984 41,83.5974 41,72.5974 L41,65.699 Z M65.398,57.199 L65.39784,57.199 C66.49944,57.80056 67.80024,58.10134 69.19084,58.2029 C70.39004,58.2029 71.58924,57.90212 72.69084,57.40212 C74.39004,56.60532 75.6908,55.20292 76.58924,53.50372 L76.6908,53.20294 L76.58924,52.60138 C76.58924,51.80058 76.39002,51.10134 76.1908,50.49978 C75.1908,47.69898 73.0932,45.59742 70.4916,44.69898 L70.4916,44.59742 C66.2924,42.8982 62.0932,42.3982 57.9916,43.09742 C56.99164,43.19902 56.29242,44.29662 56.5932,45.39822 L56.69476,45.699 C56.99556,46.60136 57.89792,47.19902 58.79636,46.9998 C59.89796,46.8982 60.99952,47.8006 60.89796,48.9998 C60.7964,50.199 60.89796,51.3982 61.2964,52.4998 C61.9996,54.4998 63.398,56.199 65.398,57.199 Z M97.3,64.3982 L97.29968,64.39842 C103.99858,64.39842 108.29938,65.69922 111.49468,67.49612 C112.99468,68.39852 114.89312,66.99612 114.49468,65.29692 C113.59628,61.39852 112.09628,58.29692 109.99468,56.09772 C107.09648,53.09772 103.09648,51.49616 97.79568,51.09772 C97.09648,50.99612 96.39332,51.3985 95.99488,52.09772 C95.59644,52.89852 95.1941,53.80088 94.99488,54.69932 C94.79168,55.59772 93.89328,56.19928 92.89328,56.09772 C91.69408,55.99612 90.8933,54.79692 91.19408,53.59772 C91.59648,52.09772 92.1941,50.69932 92.99488,49.39852 C93.49488,48.69932 93.29566,47.60168 92.59644,47.00012 C92.19802,46.59778 91.69802,46.3009 91.39724,46.19934 C90.29564,45.8009 89.09642,45.69934 88.29564,46.00012 C88.19798,46.00012 88.09642,46.09778 88.09642,46.19934 C87.29522,52.29634 83.49442,59.79654 77.99442,62.59734 L77.2952,62.99578 L76.49442,62.79656 C73.89682,61.99576 72.096,63.69496 71.29522,64.79656 C69.49444,67.19496 68.49442,71.19496 70.29522,74.19496 C71.89682,76.79656 74.59602,78.3942 77.59602,78.49576 C80.29922,78.59736 82.79922,77.39816 84.19762,75.29656 L84.69762,74.49578 L85.59606,74.39422 C86.59606,74.29266 88.09606,74.195 89.69766,74.09344 C93.10026,73.79664 98.49866,73.39426 102.99866,72.69504 C105.29946,72.39824 105.29946,69.19508 102.99866,68.79664 C101.59626,68.49976 99.89706,68.3982 97.89706,68.3982 L97.49862,68.3982 C84.10042,68.4958 79.99882,70.5974 78.79962,71.7966 C78.29962,72.19504 77.60038,72.39816 76.99882,72.2966 L76.7996,72.2966 C75.29956,71.9958 74.698,70.199 75.698,69.0974 C78.601,65.9998 85.601,64.49976 97.3,64.3982 Z" id="Combined-Shape"></path>
                <path d="M72.398,52.301 C72.398,52.10178 72.29644,51.90256 72.19878,51.69944 C71.30034,48.89864 68.19878,47.39864 65.39798,48.30104 C65.19876,48.4026 64.99954,48.4026 64.89798,48.50026 C64.5972,49.30104 64.69876,50.19946 64.89798,51.10186 C65.29642,52.20346 65.99958,53.00026 66.99958,53.50026 C67.99958,54.00026 69.19878,54.10182 70.19878,53.69948 C71.19878,53.601823 71.89798,53.00026 72.39798,52.30108 L72.398,52.301 Z" id="Shape" fill-rule="nonzero"></path>
                <path d="M17.3097507,57.6095853 L0,57.6095853 L0,62 L17.3193786,62 L17.3097507,57.6095853 Z M24.0505232,36.7038174 L9.0551743,28.0004002 L6.86613282,31.8094788 L21.8614817,40.512896 L24.0505232,36.7038174 Z M40.2898476,21.9912759 L31.6301583,6.92020666 L27.8402173,9.1203019 L36.4999066,24.1913712 L40.2898476,21.9912759 Z M61.6788705,17.4068344 L61.6788705,0 L57.3105142,0 L57.3105142,17.4068344 L61.6788705,17.4068344 Z M91.14028,9.11032763 L87.350339,6.91023239 L78.7002776,21.9813016 L82.4902186,24.1813969 L91.14028,9.11032763 Z M112.114562,31.7993061 L109.925521,27.9902274 L94.9301716,36.6936446 L97.1192131,40.5027233 L112.114562,31.7993061 Z" id="Shape" fill-rule="nonzero"></path>
            </g>
        </g>
    </g>
</svg>