<svg xmlns="http://www.w3.org/2000/svg" viewBox="0 0 329.33 260.94"><defs><style>.cls-1{fill:#c3c3c3;}.cls-2{fill:#383838;}.cls-3{fill:#fbd800;}.cls-4{fill:#ebb31f;}.cls-5{fill:#f1f1f1;}.cls-6{fill:#737373;}</style></defs><title>Logo Rgb</title><g id="Layer_2" data-name="Layer 2"><ellipse class="cls-1" cx="170.7" cy="164.84" rx="48.6" ry="7.61"/><path class="cls-2" d="M559.38,369H522.81a48.62,48.62,0,0,0-10.17-10.12,48.19,48.19,0,0,0-75.77,29.55c-.05.25-.1.51-.15.76a48.58,48.58,0,0,0-.76,8.57c0,.37,0,.75,0,1.13h0v57.71a48.69,48.69,0,0,0-29.53-19,48.1,48.1,0,0,0-9.35-1h-.39v48.6h48.6l1.31,0A85.68,85.68,0,0,0,459.87,484l9,20.69h-2.14a9.72,9.72,0,0,0-9.72,9.72h58.64a9.72,9.72,0,0,0-9.72-9.72h-7.91l-15-28.15,2-1A88.18,88.18,0,0,0,523,437a86.81,86.81,0,0,0,9.31-38c0-.44,0-.88,0-1.31s0-.88,0-1.31,0-1-.07-1.45L560,370.65A1,1,0,0,0,559.38,369ZM406,475.88V447.07c.66.16,1.32.34,2,.54a39.41,39.41,0,0,1,26.31,26.31c.09.28.16.56.24.84s.2.75.3,1.13Zm82.31,28.77h-9.72l-10.49-22.52c2.61-.72,5.19-1.55,7.71-2.5Zm-4.17-67.4a38.44,38.44,0,0,1-1.12,8.68,38.84,38.84,0,0,1-10.44,18.36h0a38.73,38.73,0,0,1-26.3,11.19l-1,0V436.62a19.44,19.44,0,0,1,28.44-17.23,14.77,14.77,0,0,1,1.56.91,18.71,18.71,0,0,1,2.83,2.23c.22.2.44.41.64.64a17.82,17.82,0,0,1,1.19,1.35c.19.24.37.48.54.72a16.65,16.65,0,0,1,1.28,2,12.2,12.2,0,0,1,.57,1.1,15.83,15.83,0,0,1,.66,1.59,16.92,16.92,0,0,1,.52,1.65c.1.37.19.75.26,1.14,0,.23.09.46.12.69s.08.47.1.7.06.47.08.72a5.88,5.88,0,0,1,.05.64v.08a.17.17,0,0,1,0,.06c0,.08,0,.16,0,.24,0,.26,0,.51,0,.76S484.17,437,484.16,437.25ZM523,398.74a77.23,77.23,0,0,1-10.39,37.88A78.17,78.17,0,0,1,484.35,465a48.62,48.62,0,0,0,8.39-19.8,47.77,47.77,0,0,0,.75-7.73c0-.28,0-.56,0-.84s0-.55,0-.82c0-.1,0-.2,0-.3a28.75,28.75,0,0,0-48.18-20.06V397.74a38.73,38.73,0,0,1,1.13-9.31c-.37,0,0,0,0,0a38.88,38.88,0,0,1,75.48,0,38.17,38.17,0,0,1,1.12,8.33c0,.33,0,.67,0,1S523,398.41,523,398.74Z" transform="translate(-315.33 -349.53)"/><path class="cls-3" d="M509.33,441.48l.18.1c1.11-1.6,2.15-3.27,3.13-5,.8-1.38,1.56-2.79,2.28-4.23A76.54,76.54,0,0,1,509.33,441.48Z" transform="translate(-315.33 -349.53)"/><path class="cls-4" d="M509.51,441.58A77.94,77.94,0,0,1,484.35,465a48.57,48.57,0,0,0,8.39-19.8,47.51,47.51,0,0,0,.74-7.73c0-.28,0-.56,0-.84s0-.55,0-.82a2.73,2.73,0,0,1,0-.3c0-.34,0-.67-.06-1,.83,6.16,4.28,22.89,15.9,7Z" transform="translate(-315.33 -349.53)"/><path class="cls-4" d="M488.24,359.08a38.9,38.9,0,0,0-33.68,29.33s-.37,0,0,0a38.64,38.64,0,0,0-1.13,9.32v12.42a28.28,28.28,0,0,0-5,2.79,29.88,29.88,0,0,0-3.1,2.47V397.74a38.64,38.64,0,0,1,1.13-9.32c-.37,0,0,0,0,0a38.89,38.89,0,0,1,37.74-29.55A34.86,34.86,0,0,1,488.24,359.08Z" transform="translate(-315.33 -349.53)"/><path class="cls-3" d="M523,397.74c0,.34,0,.67,0,1a72.52,72.52,0,0,1-13.7,42.74,27.35,27.35,0,0,1-4,4.56c-8.43,7.27-11.14-6.17-11.87-11.56-.06-.64-.12-1.26-.21-1.87,0,0,0-.09,0-.13a.2.2,0,0,1,0-.07h0a28.83,28.83,0,0,0-20.61-23.46,27.76,27.76,0,0,0-3.77-.8,28.77,28.77,0,0,0-15.39,2V397.74a38.64,38.64,0,0,1,1.13-9.32c-.37,0,0,0,0,0a38.9,38.9,0,0,1,33.68-29.33,38.87,38.87,0,0,1,33.67,29.33,37.71,37.71,0,0,1,1.12,8.33C523,397.07,523,397.4,523,397.74Z" transform="translate(-315.33 -349.53)"/><path class="cls-4" d="M468.79,417.61a19.45,19.45,0,0,0-15.36,19v38a38.19,38.19,0,0,1-7.13.84h-1V436.61a19.47,19.47,0,0,1,19.44-19.44A18.7,18.7,0,0,1,468.79,417.61Z" transform="translate(-315.33 -349.53)"/><path class="cls-3" d="M484.17,436.61v.64a38.11,38.11,0,0,1-1.12,8.68,39,39,0,0,1-22.31,26.37,38.25,38.25,0,0,1-7.31,2.33v-38a19.47,19.47,0,0,1,15.36-19,19.13,19.13,0,0,1,4.95,1.77,14.32,14.32,0,0,1,1.55.91,18.21,18.21,0,0,1,2.83,2.23,8.59,8.59,0,0,1,.64.64,16.74,16.74,0,0,1,1.19,1.35l.55.73a16.46,16.46,0,0,1,1.27,2,10.22,10.22,0,0,1,.57,1.1,18.52,18.52,0,0,1,1.18,3.23c.1.37.19.75.27,1.13,0,.22.09.46.12.7a6.91,6.91,0,0,1,.1.7c0,.24.06.47.08.72a6,6,0,0,1,.06.63v.15c0,.08,0,.16,0,.24C484.17,436.11,484.17,436.35,484.17,436.61Z" transform="translate(-315.33 -349.53)"/><path class="cls-3" d="M434.84,475.88S423.5,462.12,406,462.12V447.06c.66.17,1.31.35,2,.54a39.4,39.4,0,0,1,26.31,26.32c.09.28.17.56.25.84S434.75,475.5,434.84,475.88Z" transform="translate(-315.33 -349.53)"/><path class="cls-4" d="M434.84,475.88H406V462.12C423.5,462.12,434.84,475.88,434.84,475.88Z" transform="translate(-315.33 -349.53)"/><path class="cls-2" d="M505.22,396.9c-3.91,1.34-8.6-2-10.48-7.49s-.23-11,3.67-12.34,8.61,2,10.49,7.49S509.12,395.57,505.22,396.9Z" transform="translate(-315.33 -349.53)"/><ellipse class="cls-5" cx="504.35" cy="381.92" rx="2.71" ry="4.41" transform="translate(-442.33 -8) rotate(-33.47)"/><path class="cls-3" d="M493.19,432.4c.1.68.18,1.37.24,2.08C493.27,433.3,493.2,432.5,493.19,432.4Z" transform="translate(-315.33 -349.53)"/><path class="cls-2" d="M315.33,543.29v-3.72a5,5,0,0,1,5-5h14.19v8.72h-4.65v27.84H344.4v-2.33a4.26,4.26,0,0,1,4.26-4.26h4.14v15.24H316v-4.33a4.26,4.26,0,0,1,4.26-4.26h0V543.29Z" transform="translate(-315.33 -349.53)"/><path class="cls-2" d="M370.52,547.69v24.23h3.68v7.88H357.35v-7.88h4.07V555.44h-4v-2.75a5,5,0,0,1,5-5Zm-9.69-8.39a5,5,0,0,1,5.23-5.11,5.14,5.14,0,0,1,5.43,5.23,5.06,5.06,0,0,1-5.3,5A5.18,5.18,0,0,1,360.83,539.29Z" transform="translate(-315.33 -349.53)"/><path class="cls-2" d="M391.59,539.16V548h8.27v7.68h-8.4v12.53c0,3.94,3.49,4.91,7.23,3.29l2.2,7.43a18.64,18.64,0,0,1-7.69,1.36c-7.36-.06-10.59-3.42-10.59-12.08V555.7h-5.55V548h5.55v-3.39a5,5,0,0,1,4.46-5Z" transform="translate(-315.33 -349.53)"/><path class="cls-2" d="M417.12,539.16V548h8.27v7.68H417v12.53c0,3.94,3.49,4.91,7.23,3.29l2.2,7.43a18.64,18.64,0,0,1-7.69,1.36c-7.36-.06-10.59-3.42-10.59-12.08V555.7h-9V548h9v-3.39a5,5,0,0,1,4.46-5Z" transform="translate(-315.33 -349.53)"/><path class="cls-2" d="M434.67,534.57h8v37.34h3.88v7.88H429.41v-7.88h4.39V542.39h-4.13v-2.82A5,5,0,0,1,434.67,534.57Z" transform="translate(-315.33 -349.53)"/><path class="cls-2" d="M482.52,575.66c-3.49,3.42-9.24,5-14,5-12.47,0-17.7-7.62-17.7-17.18,0-10,6.72-16.66,17.25-16.66s17.38,5.62,15.5,20.09H460c.45,3.23,3.36,5.62,8.72,5.62a14.71,14.71,0,0,0,8.46-2.78Zm-7.17-15.57c.13-3.94-3.16-5.55-7.17-5.55s-7.43,1.81-8.21,5.55Z" transform="translate(-315.33 -349.53)"/><path class="cls-2" d="M503.92,579.79V576a4.91,4.91,0,0,1,4.91-4.91h0v-27.9h-4.78v-3.59a5,5,0,0,1,5-5h19.87c9.37,0,15.89,3.81,15.89,13.24a9.27,9.27,0,0,1-5.3,8.65c4.46,1.94,6.65,5.56,6.65,10.53-.39,10.53-8.33,12.79-17.25,12.79Zm14.28-27.71h10.66c5.3,0,6.39-2.39,6.39-4.52,0-3-1.87-4.46-6.33-4.46H518.2Zm0,19.06h10.72c2.65,0,7.23-.26,7.23-5.3,0-4.13-3.36-5.23-7.3-5.23H518.2Z" transform="translate(-315.33 -349.53)"/><path class="cls-2" d="M564.93,547.69v24.23h3.68v7.88H551.75v-7.88h4.07V555.44h-4v-2.75a5,5,0,0,1,5-5Zm-9.69-8.39a5,5,0,0,1,5.23-5.11,5.14,5.14,0,0,1,5.43,5.23,5.06,5.06,0,0,1-5.3,5A5.18,5.18,0,0,1,555.24,539.29Z" transform="translate(-315.33 -349.53)"/><path class="cls-2" d="M577.93,555.5h-4.13v-2.82a5,5,0,0,1,5-5h6.82l.84,3a11.41,11.41,0,0,1,9-3.87,13.4,13.4,0,0,1,8.72,3.1l-4.2,7.69a9.49,9.49,0,0,0-6-2c-3.55,0-7,2-7,7.62V572h4.46v7.75H573V572h4.91Z" transform="translate(-315.33 -349.53)"/><path class="cls-2" d="M644.55,571.78v8h-8.19a5,5,0,0,1-4.78-3.53l-.21-.67a13.09,13.09,0,0,1-10.72,4.78c-9,0-15.5-5.75-15.5-16.54,0-11.24,7.17-16.73,16.21-16.73,3.62,0,7.43.9,9.82,3.88v-8.66h-4.46v-2.69a5,5,0,0,1,5-5h8.5v37.14Zm-30.3-8.07c0,5.3,3.49,8.21,8,8.21,4.13,0,8.59-2.32,8.59-8.27,0-7.11-5-8.46-8.2-8.46C618.25,555.18,614.25,557.64,614.25,563.71Z" transform="translate(-315.33 -349.53)"/><path class="cls-6" d="M331.12,610.08H316v-21h14.8v2h-12.7v7.54h12.13v2H318.14v7.56h13Z" transform="translate(-315.33 -349.53)"/><path class="cls-6" d="M349.84,589.06v19h11.68v2H347.74v-21Z" transform="translate(-315.33 -349.53)"/><path class="cls-6" d="M392,610.08H377v-21h14.8v2h-12.7v7.54H391.2v2H379.07v7.56h13Z" transform="translate(-315.33 -349.53)"/><path class="cls-6" d="M425.66,607.22a10.68,10.68,0,0,1-7.66,3.18c-7.27,0-10.9-4.86-10.93-10.72s3.63-10.93,10.93-10.93a9.66,9.66,0,0,1,7.45,3.15l-1.29,1.29a8.7,8.7,0,0,0-6.15-2.52c-5.86,0-8.83,4.32-8.83,9,0,4.93,3,8.8,8.83,8.8a9.07,9.07,0,0,0,6.31-2.58Z" transform="translate(-315.33 -349.53)"/><path class="cls-6" d="M446.69,591h-7.42v-2h16.93v2H448.8v19h-2.1Z" transform="translate(-315.33 -349.53)"/><path class="cls-6" d="M488.87,610.08h-2.73l-7-7.75h-5.43v7.75h-2.1v-21h9.43c4.68,0,6.94,3.12,7,6.67,0,3.27-1.89,6.24-6.34,6.45Zm-15.13-19v9.31h7.21c3.36,0,5-2,5-4.62S484.3,591,481.06,591Z" transform="translate(-315.33 -349.53)"/><path class="cls-6" d="M524.86,599.63c0,5.5-3.51,10.84-10.63,10.84s-10.66-5.34-10.66-10.87c0-5.92,3.84-10.9,10.66-10.9C521.34,588.73,524.89,594,524.86,599.63Zm-10.63,8.86c5.73,0,8.5-4.35,8.53-8.86,0-4.71-2.79-8.92-8.53-8.95s-8.62,4-8.56,8.95C505.73,604.22,508.49,608.49,514.23,608.49Z" transform="translate(-315.33 -349.53)"/><path class="cls-6" d="M556.28,606.11l-.12-7V589.06h2.1v21H557l-13.6-16.9.06,6.21v10.69h-2.1v-21h1.32Z" transform="translate(-315.33 -349.53)"/><path class="cls-6" d="M576.12,610.08v-21h2.1v21Z" transform="translate(-315.33 -349.53)"/><path class="cls-6" d="M613.33,607.22a10.68,10.68,0,0,1-7.66,3.18c-7.27,0-10.9-4.86-10.93-10.72s3.63-10.93,10.93-10.93a9.66,9.66,0,0,1,7.45,3.15l-1.29,1.29a8.7,8.7,0,0,0-6.15-2.52c-5.86,0-8.83,4.32-8.83,9,0,4.93,3,8.8,8.83,8.8a9.07,9.07,0,0,0,6.31-2.58Z" transform="translate(-315.33 -349.53)"/><path class="cls-6" d="M642.29,593.38c-1.23-2-3.81-2.64-6-2.67-2.58,0-5.91.75-5.91,3.84,0,2.46,2.7,3.12,6,3.69,4.14.72,8.35,1.65,8.35,6.13,0,4.74-4.59,6-8.41,6-3.54,0-7.15-1.29-8.77-4.66l1.83-1c1.44,2.7,4.38,3.63,6.94,3.63s6.28-.69,6.28-4.05c0-2.85-3.15-3.57-6.43-4.14-4-.69-7.87-1.56-7.87-5.64-.06-4.42,4.44-5.83,8-5.83,2.88,0,6,.78,7.84,3.66Z" transform="translate(-315.33 -349.53)"/></g></svg>