<?xml version="1.0" encoding="UTF-8"?>
<svg width="168px" height="169px" viewBox="0 0 168 169" version="1.1" xmlns="http://www.w3.org/2000/svg" xmlns:xlink="http://www.w3.org/1999/xlink">
    <!-- Generator: Sketch 51.2 (57519) - http://www.bohemiancoding.com/sketch -->
    <title>flip@0.5x</title>
    <desc>Created with Sketch.</desc>
    <defs></defs>
    <g id="flip" stroke="none" stroke-width="1" fill="none" fill-rule="evenodd">
        <path d="M128.699,51.273 C128.536,65.067 124.772,77.989 118.312,89.155 C111.516,100.896 101.742,110.692 90.017,117.52 C94.177,111.727 97.108,104.985 98.406,97.715 C98.857,95.204 99.114,92.615 99.153,89.987 C99.161,89.707 99.168,89.427 99.168,89.147 C99.168,88.867 99.161,88.595 99.161,88.323 C99.153,88.222 99.153,88.121 99.146,88.02 C98.655,75.369 89.962,64.794 78.252,61.467 C75.757,60.759 73.121,60.378 70.399,60.378 C64.335,60.378 58.698,62.268 54.056,65.487 C52.967,66.241 51.933,67.065 50.961,67.959 L50.961,50.27 C50.961,47.059 51.35,43.941 52.088,40.955 C51.715,40.948 52.096,40.94 52.096,40.94 C56.272,23.974 71.589,11.394 89.838,11.394 C108.087,11.394 123.404,23.974 127.58,40.94 C128.248,43.614 128.629,46.406 128.699,49.267 C128.715,49.602 128.715,49.936 128.715,50.27 C128.715,50.605 128.715,50.939 128.699,51.273 Z M89.83,89.785 C89.783,92.771 89.402,95.678 88.711,98.462 C86.969,105.545 83.291,111.859 78.268,116.82 C78.26,116.82 78.26,116.82 78.26,116.82 C71.457,123.53 62.204,127.752 51.964,128.008 C51.63,128.016 51.295,128.024 50.961,128.024 L50.961,89.147 C50.961,86.247 51.599,83.494 52.742,81.022 C54.095,78.067 56.17,75.517 58.744,73.596 C61.987,71.155 66.03,69.709 70.399,69.709 C73.65,69.709 76.713,70.509 79.403,71.917 C79.94,72.189 80.461,72.492 80.959,72.827 C81.977,73.48 82.918,74.226 83.789,75.058 C84.006,75.26 84.224,75.47 84.426,75.696 C84.846,76.124 85.243,76.582 85.616,77.049 C85.811,77.29 85.989,77.531 86.16,77.772 C86.635,78.417 87.063,79.094 87.436,79.793 C87.646,80.151 87.832,80.517 88.003,80.89 C88.252,81.403 88.47,81.932 88.664,82.476 C88.866,83.012 89.037,83.564 89.185,84.124 C89.286,84.498 89.371,84.878 89.449,85.259 C89.496,85.485 89.543,85.718 89.573,85.951 C89.62,86.185 89.651,86.418 89.675,86.651 C89.706,86.884 89.737,87.126 89.753,87.367 C89.783,87.577 89.799,87.794 89.807,88.004 L89.807,88.082 C89.814,88.105 89.814,88.121 89.814,88.144 C89.814,88.222 89.822,88.307 89.822,88.385 C89.83,88.642 89.838,88.891 89.838,89.147 C89.838,89.357 89.838,89.567 89.83,89.785 Z M94.004,157.182 L84.285,157.182 L73.79,134.664 C76.402,133.949 78.983,133.117 81.495,132.168 L94.004,157.182 Z M11.695,128.413 L11.695,99.597 C12.356,99.76 13.018,99.939 13.663,100.134 C26.251,103.92 36.188,113.857 39.975,126.445 C40.06,126.726 40.138,127.005 40.215,127.285 C40.317,127.659 40.418,128.032 40.511,128.413 L11.695,128.413 Z M165.049,21.501 L128.481,21.501 C125.612,17.652 122.184,14.231 118.312,11.386 C110.334,5.523 100.482,2.063 89.838,2.063 C66.45,2.063 46.895,18.803 42.541,40.94 C42.486,41.189 42.439,41.445 42.393,41.702 C41.895,44.478 41.631,47.347 41.631,50.27 C41.631,50.644 41.639,51.024 41.647,51.397 C41.639,51.397 41.639,51.397 41.631,51.405 L41.631,109.114 C38.661,105.04 35.068,101.448 30.994,98.478 C25.466,94.434 19.051,91.534 12.1,90.119 C9.075,89.505 5.95,89.17 2.754,89.155 C2.622,89.147 2.497,89.147 2.365,89.147 L2.365,137.743 L50.961,137.743 C51.397,137.743 51.84,137.735 52.275,137.728 C56.793,137.665 61.217,137.23 65.54,136.491 L74.565,157.182 L72.427,157.182 C67.062,157.182 62.708,161.536 62.708,166.9 L121.35,166.9 C121.35,164.218 120.261,161.784 118.504,160.027 C116.739,158.271 114.313,157.182 111.631,157.182 L103.723,157.182 L88.757,129.035 C89.434,128.7 90.103,128.366 90.764,128.024 C107.084,119.533 120.419,106.012 128.715,89.543 C134.5,78.083 137.835,65.191 138.029,51.585 C138.045,51.149 138.045,50.706 138.045,50.27 C138.045,49.835 138.045,49.392 138.029,48.956 C138.015,48.474 137.983,47.992 137.96,47.51 L165.679,23.181 C166.348,22.598 165.936,21.501 165.049,21.501 Z" id="Fill-2" stroke="#FFFFFF" stroke-width="3" fill="#323330"></path>
        <path d="M128.699,51.273 C128.536,65.067 124.772,77.989 118.312,89.155 C111.516,100.896 101.742,110.692 90.017,117.52 C94.177,111.727 97.108,104.985 98.406,97.715 C98.857,95.204 99.114,92.615 99.153,89.987 C99.161,89.707 99.168,89.427 99.168,89.147 C99.168,88.867 99.161,88.595 99.161,88.323 C99.153,88.222 99.153,88.121 99.146,88.02 C98.655,75.369 89.962,64.794 78.252,61.467 C75.757,60.759 73.121,60.378 70.399,60.378 C64.335,60.378 58.698,62.268 54.056,65.487 C52.967,66.241 51.933,67.065 50.961,67.959 L50.961,50.27 C50.961,47.059 51.35,43.941 52.088,40.955 C51.715,40.948 52.096,40.94 52.096,40.94 C56.272,23.974 71.589,11.394 89.838,11.394 C108.087,11.394 123.404,23.974 127.58,40.94 C128.248,43.614 128.629,46.406 128.699,49.267 C128.715,49.602 128.715,49.936 128.715,50.27 C128.715,50.605 128.715,50.939 128.699,51.273 Z M89.83,89.785 C89.783,92.771 89.402,95.678 88.711,98.462 C86.969,105.545 83.291,111.859 78.268,116.82 C78.26,116.82 78.26,116.82 78.26,116.82 C71.457,123.53 62.204,127.752 51.964,128.008 C51.63,128.016 51.295,128.024 50.961,128.024 L50.961,89.147 C50.961,86.247 51.599,83.494 52.742,81.022 C54.095,78.067 56.17,75.517 58.744,73.596 C61.987,71.155 66.03,69.709 70.399,69.709 C73.65,69.709 76.713,70.509 79.403,71.917 C79.94,72.189 80.461,72.492 80.959,72.827 C81.977,73.48 82.918,74.226 83.789,75.058 C84.006,75.26 84.224,75.47 84.426,75.696 C84.846,76.124 85.243,76.582 85.616,77.049 C85.811,77.29 85.989,77.531 86.16,77.772 C86.635,78.417 87.063,79.094 87.436,79.793 C87.646,80.151 87.832,80.517 88.003,80.89 C88.252,81.403 88.47,81.932 88.664,82.476 C88.866,83.012 89.037,83.564 89.185,84.124 C89.286,84.498 89.371,84.878 89.449,85.259 C89.496,85.485 89.543,85.718 89.573,85.951 C89.62,86.185 89.651,86.418 89.675,86.651 C89.706,86.884 89.737,87.126 89.753,87.367 C89.783,87.577 89.799,87.794 89.807,88.004 L89.807,88.082 C89.814,88.105 89.814,88.121 89.814,88.144 C89.814,88.222 89.822,88.307 89.822,88.385 C89.83,88.642 89.838,88.891 89.838,89.147 C89.838,89.357 89.838,89.567 89.83,89.785 Z M94.004,157.182 L84.285,157.182 L73.79,134.664 C76.402,133.949 78.983,133.117 81.495,132.168 L94.004,157.182 Z M11.695,128.413 L11.695,99.597 C12.356,99.76 13.018,99.939 13.663,100.134 C26.251,103.92 36.188,113.857 39.975,126.445 C40.06,126.726 40.138,127.005 40.215,127.285 C40.317,127.659 40.418,128.032 40.511,128.413 L11.695,128.413 Z M165.049,21.501 L128.481,21.501 C125.612,17.652 122.184,14.231 118.312,11.386 C110.334,5.523 100.482,2.063 89.838,2.063 C66.45,2.063 46.895,18.803 42.541,40.94 C42.486,41.189 42.439,41.445 42.393,41.702 C41.895,44.478 41.631,47.347 41.631,50.27 C41.631,50.644 41.639,51.024 41.647,51.397 C41.639,51.397 41.639,51.397 41.631,51.405 L41.631,109.114 C38.661,105.04 35.068,101.448 30.994,98.478 C25.466,94.434 19.051,91.534 12.1,90.119 C9.075,89.505 5.95,89.17 2.754,89.155 C2.622,89.147 2.497,89.147 2.365,89.147 L2.365,137.743 L50.961,137.743 C51.397,137.743 51.84,137.735 52.275,137.728 C56.793,137.665 61.217,137.23 65.54,136.491 L74.565,157.182 L72.427,157.182 C67.062,157.182 62.708,161.536 62.708,166.9 L121.35,166.9 C121.35,164.218 120.261,161.784 118.504,160.027 C116.739,158.271 114.313,157.182 111.631,157.182 L103.723,157.182 L88.757,129.035 C89.434,128.7 90.103,128.366 90.764,128.024 C107.084,119.533 120.419,106.012 128.715,89.543 C134.5,78.083 137.835,65.191 138.029,51.585 C138.045,51.149 138.045,50.706 138.045,50.27 C138.045,49.835 138.045,49.392 138.029,48.956 C138.015,48.474 137.983,47.992 137.96,47.51 L165.679,23.181 C166.348,22.598 165.936,21.501 165.049,21.501 Z" id="Fill-2-Copy" fill="#323330"></path>
        <path d="M114.996,94.014 L115.176,94.115 C116.286,92.51 117.33,90.85 118.307,89.155 C119.104,87.774 119.866,86.36 120.585,84.924 C118.542,88.728 116.69,91.713 114.996,94.014" id="Fill-3" fill="#F6D421"></path>
        <path d="M115.176,94.115 C108.655,103.666 100.047,111.679 90.014,117.515 C94.177,111.724 97.106,104.99 98.408,97.718 C98.857,95.204 99.115,92.611 99.149,89.985 C99.16,89.705 99.172,89.424 99.172,89.144 C99.172,88.863 99.16,88.594 99.16,88.324 C99.149,88.223 99.149,88.122 99.149,88.021 C99.138,87.685 99.115,87.348 99.093,87.011 C99.923,93.172 103.369,109.906 114.996,94.014 L115.176,94.115" id="Fill-4" fill="#E1AD2D"></path>
        <path d="M93.908,11.615 C77.488,13.31 64.1,25.251 60.228,40.94 C60.228,40.94 59.857,40.952 60.228,40.952 C59.487,43.937 59.094,47.057 59.094,50.267 L59.094,62.691 C57.321,63.454 55.626,64.386 54.055,65.485 C52.966,66.237 51.934,67.068 50.958,67.955 L50.958,50.267 C50.958,47.057 51.35,43.937 52.091,40.952 C51.72,40.952 52.091,40.94 52.091,40.94 C56.277,23.971 71.585,11.391 89.834,11.391 C91.214,11.391 92.572,11.458 93.908,11.615" id="Fill-5" fill="#E1AD2D"></path>
        <path d="M128.71,50.267 C128.71,50.604 128.71,50.94 128.699,51.277 C128.554,63.364 125.647,74.767 120.585,84.924 C118.542,88.728 116.69,91.713 114.996,94.014 C113.525,96.023 112.19,97.516 110.967,98.571 C102.538,105.843 99.822,92.398 99.093,87.011 C99.037,86.372 98.97,85.754 98.88,85.137 C98.88,85.092 98.868,85.047 98.868,85.002 C98.857,84.969 98.857,84.946 98.857,84.935 C98.857,84.924 98.857,84.924 98.857,84.924 C97.196,73.667 88.992,64.509 78.251,61.468 C77.028,61.12 75.772,60.85 74.481,60.671 C73.145,60.48 71.787,60.379 70.396,60.379 C66.389,60.379 62.562,61.198 59.094,62.691 L59.094,50.267 C59.094,47.057 59.487,43.937 60.228,40.952 C59.857,40.952 60.228,40.94 60.228,40.94 C64.1,25.251 77.488,13.31 93.908,11.615 C110.327,13.31 123.716,25.251 127.577,40.94 C128.25,43.612 128.632,46.406 128.699,49.268 C128.71,49.605 128.71,49.93 128.71,50.267" id="Fill-6" fill="#F6D421"></path>
        <path d="M74.459,70.143 C71.664,70.738 69.094,71.939 66.883,73.6 C64.313,75.519 62.236,78.066 60.878,81.018 C59.734,83.499 59.094,86.248 59.094,89.144 L59.094,127.167 C56.793,127.661 54.403,127.953 51.967,128.009 C51.631,128.02 51.294,128.02 50.958,128.02 L50.958,89.144 C50.958,86.248 51.597,83.499 52.742,81.018 C54.1,78.066 56.176,75.519 58.746,73.6 C61.99,71.153 66.03,69.705 70.396,69.705 C71.787,69.705 73.145,69.851 74.459,70.143" id="Fill-7" fill="#E1AD2D"></path>
        <path d="M89.834,89.144 L89.834,89.783 C89.789,92.769 89.407,95.675 88.712,98.459 C86.972,105.541 83.291,111.859 78.263,116.819 C74.862,120.175 70.844,122.902 66.4,124.833 C64.077,125.843 61.63,126.628 59.094,127.167 L59.094,89.144 C59.094,86.248 59.734,83.499 60.878,81.018 C62.236,78.066 64.313,75.519 66.883,73.6 C69.094,71.939 71.664,70.738 74.459,70.143 C76.209,70.502 77.87,71.119 79.408,71.916 C79.935,72.186 80.462,72.489 80.957,72.825 C81.978,73.476 82.92,74.228 83.785,75.059 C84.009,75.261 84.222,75.474 84.424,75.698 C84.851,76.125 85.244,76.585 85.614,77.045 C85.805,77.292 85.984,77.528 86.164,77.774 C86.635,78.414 87.062,79.099 87.432,79.795 C87.646,80.154 87.836,80.513 88.005,80.895 C88.251,81.4 88.465,81.927 88.667,82.477 C88.868,83.016 89.037,83.566 89.183,84.127 C89.284,84.497 89.374,84.879 89.452,85.26 C89.497,85.485 89.542,85.721 89.575,85.956 C89.62,86.181 89.654,86.417 89.677,86.652 C89.71,86.888 89.732,87.124 89.755,87.37 C89.789,87.572 89.8,87.797 89.812,87.999 L89.812,88.145 C89.812,88.223 89.822,88.302 89.822,88.38 C89.834,88.639 89.834,88.885 89.834,89.144" id="Fill-8" fill="#F6D421"></path>
        <path d="M40.509,128.413 C40.509,128.413 29.162,114.653 11.699,114.653 L11.699,99.592 C12.361,99.761 13.012,99.94 13.663,100.131 C26.255,103.924 36.188,113.857 39.97,126.449 C40.06,126.73 40.138,127.01 40.217,127.291 C40.318,127.661 40.419,128.031 40.509,128.413" id="Fill-9" fill="#F6D421"></path>
        <path d="M40.509,128.413 L11.699,128.413 L11.699,114.653 C29.162,114.653 40.509,128.413 40.509,128.413" id="Fill-10" fill="#E1AD2D"></path>
        <path d="M110.891,49.434 C106.981,50.776 102.293,47.421 100.414,41.944 C98.535,36.475 100.179,30.939 104.08,29.605 C107.988,28.263 112.686,31.618 114.564,37.095 C116.443,42.564 114.791,48.101 110.891,49.434" id="Fill-11" fill="#323330"></path>
        <path d="M107.757,35.942 C109.102,37.976 111.202,38.955 112.448,38.131 C113.695,37.306 113.616,34.99 112.272,32.958 C110.928,30.924 108.827,29.945 107.581,30.769 C106.334,31.594 106.413,33.91 107.757,35.942" id="Fill-12" fill="#F3F3F0"></path>
        <path d="M98.857,84.935 C98.958,85.62 99.037,86.304 99.093,87.011 C98.936,85.833 98.868,85.036 98.857,84.935" id="Fill-13" fill="#F6D421"></path>
    </g>
</svg>