<?xml version="1.0" encoding="UTF-8"?>
<svg width="330px" height="232px" viewBox="0 0 330 232" version="1.1" xmlns="http://www.w3.org/2000/svg" xmlns:xlink="http://www.w3.org/1999/xlink">
    <!-- Generator: Sketch 51.2 (57519) - http://www.bohemiancoding.com/sketch -->
    <title>little-bird-logo</title>
    <desc>Created with Sketch.</desc>
    <defs></defs>
    <g id="little-bird-logo" stroke="none" stroke-width="1" fill="none" fill-rule="evenodd">
        <path d="M122.1,164.9 C122.1,169.102 143.857,172.507 170.696,172.507 C197.536,172.507 219.294,169.102 219.294,164.9 C219.294,160.7 197.536,157.295 170.696,157.295 C143.857,157.295 122.1,160.7 122.1,164.9" id="Fill-1" fill="#BDBDB8"></path>
        <path d="M207.699,49.273 C207.536,63.067 203.772,75.989 197.312,87.155 C190.516,98.896 180.742,108.692 169.017,115.52 C173.177,109.727 176.108,102.985 177.406,95.715 C177.857,93.204 178.114,90.615 178.153,87.987 C178.161,87.707 178.168,87.427 178.168,87.147 C178.168,86.867 178.161,86.595 178.161,86.323 C178.153,86.222 178.153,86.121 178.146,86.02 C177.655,73.369 168.962,62.794 157.252,59.467 C154.757,58.759 152.121,58.378 149.399,58.378 C143.335,58.378 137.698,60.268 133.056,63.487 C131.967,64.241 130.933,65.065 129.961,65.959 L129.961,48.27 C129.961,45.059 130.35,41.941 131.088,38.955 C130.715,38.948 131.096,38.94 131.096,38.94 C135.272,21.974 150.589,9.394 168.838,9.394 C187.087,9.394 202.404,21.974 206.58,38.94 C207.248,41.614 207.629,44.406 207.699,47.267 C207.715,47.602 207.715,47.936 207.715,48.27 C207.715,48.605 207.715,48.939 207.699,49.273 Z M168.83,87.785 C168.783,90.771 168.402,93.678 167.711,96.462 C165.969,103.545 162.291,109.859 157.268,114.82 C157.26,114.82 157.26,114.82 157.26,114.82 C150.457,121.53 141.204,125.752 130.964,126.008 C130.63,126.016 130.295,126.024 129.961,126.024 L129.961,87.147 C129.961,84.247 130.599,81.494 131.742,79.022 C133.095,76.067 135.17,73.517 137.744,71.596 C140.987,69.155 145.03,67.709 149.399,67.709 C152.65,67.709 155.713,68.509 158.403,69.917 C158.94,70.189 159.461,70.492 159.959,70.827 C160.977,71.48 161.918,72.226 162.789,73.058 C163.006,73.26 163.224,73.47 163.426,73.696 C163.846,74.124 164.243,74.582 164.616,75.049 C164.811,75.29 164.989,75.531 165.16,75.772 C165.635,76.417 166.063,77.094 166.436,77.793 C166.646,78.151 166.832,78.517 167.003,78.89 C167.252,79.403 167.47,79.932 167.664,80.476 C167.866,81.012 168.037,81.564 168.185,82.124 C168.286,82.498 168.371,82.878 168.449,83.259 C168.496,83.485 168.543,83.718 168.573,83.951 C168.62,84.185 168.651,84.418 168.675,84.651 C168.706,84.884 168.737,85.126 168.753,85.367 C168.783,85.577 168.799,85.794 168.807,86.004 L168.807,86.082 C168.814,86.105 168.814,86.121 168.814,86.144 C168.814,86.222 168.822,86.307 168.822,86.385 C168.83,86.642 168.838,86.891 168.838,87.147 C168.838,87.357 168.838,87.567 168.83,87.785 Z M173.004,155.182 L163.285,155.182 L152.79,132.664 C155.402,131.949 157.983,131.117 160.495,130.168 L173.004,155.182 Z M90.695,126.413 L90.695,97.597 C91.356,97.76 92.018,97.939 92.663,98.134 C105.251,101.92 115.188,111.857 118.975,124.445 C119.06,124.726 119.138,125.005 119.215,125.285 C119.317,125.659 119.418,126.032 119.511,126.413 L90.695,126.413 Z M244.049,19.501 L207.481,19.501 C204.612,15.652 201.184,12.231 197.312,9.386 C189.334,3.523 179.482,0.063 168.838,0.063 C145.45,0.063 125.895,16.803 121.541,38.94 C121.486,39.189 121.439,39.445 121.393,39.702 C120.895,42.478 120.631,45.347 120.631,48.27 C120.631,48.644 120.639,49.024 120.647,49.397 C120.639,49.397 120.639,49.397 120.631,49.405 L120.631,107.114 C117.661,103.04 114.068,99.448 109.994,96.478 C104.466,92.434 98.051,89.534 91.1,88.119 C88.075,87.505 84.95,87.17 81.754,87.155 C81.622,87.147 81.497,87.147 81.365,87.147 L81.365,135.743 L129.961,135.743 C130.397,135.743 130.84,135.735 131.275,135.728 C135.793,135.665 140.217,135.23 144.54,134.491 L153.565,155.182 L151.427,155.182 C146.062,155.182 141.708,159.536 141.708,164.9 L200.35,164.9 C200.35,162.218 199.261,159.784 197.504,158.027 C195.739,156.271 193.313,155.182 190.631,155.182 L182.723,155.182 L167.757,127.035 C168.434,126.7 169.103,126.366 169.764,126.024 C186.084,117.533 199.419,104.012 207.715,87.543 C213.5,76.083 216.835,63.191 217.029,49.585 C217.045,49.149 217.045,48.706 217.045,48.27 C217.045,47.835 217.045,47.392 217.029,46.956 C217.015,46.474 216.983,45.992 216.96,45.51 L244.679,21.181 C245.348,20.598 244.936,19.501 244.049,19.501 Z" id="Fill-2" fill="#323330"></path>
        <path d="M193.996,92.014 L194.176,92.115 C195.286,90.51 196.33,88.85 197.307,87.155 C198.104,85.774 198.866,84.36 199.585,82.924 C197.542,86.728 195.69,89.713 193.996,92.014" id="Fill-3" fill="#F6D421"></path>
        <path d="M194.176,92.115 C187.655,101.666 179.047,109.679 169.014,115.515 C173.177,109.724 176.106,102.99 177.408,95.718 C177.857,93.204 178.115,90.611 178.149,87.985 C178.16,87.705 178.172,87.424 178.172,87.144 C178.172,86.863 178.16,86.594 178.16,86.324 C178.149,86.223 178.149,86.122 178.149,86.021 C178.138,85.685 178.115,85.348 178.093,85.011 C178.923,91.172 182.369,107.906 193.996,92.014 L194.176,92.115" id="Fill-4" fill="#E1AD2D"></path>
        <path d="M172.908,9.615 C156.488,11.31 143.1,23.251 139.228,38.94 C139.228,38.94 138.857,38.952 139.228,38.952 C138.487,41.937 138.094,45.057 138.094,48.267 L138.094,60.691 C136.321,61.454 134.626,62.386 133.055,63.485 C131.966,64.237 130.934,65.068 129.958,65.955 L129.958,48.267 C129.958,45.057 130.35,41.937 131.091,38.952 C130.72,38.952 131.091,38.94 131.091,38.94 C135.277,21.971 150.585,9.391 168.834,9.391 C170.214,9.391 171.572,9.458 172.908,9.615" id="Fill-5" fill="#E1AD2D"></path>
        <path d="M207.71,48.267 C207.71,48.604 207.71,48.94 207.699,49.277 C207.554,61.364 204.647,72.767 199.585,82.924 C197.542,86.728 195.69,89.713 193.996,92.014 C192.525,94.023 191.19,95.516 189.967,96.571 C181.538,103.843 178.822,90.398 178.093,85.011 C178.037,84.372 177.97,83.754 177.88,83.137 C177.88,83.092 177.868,83.047 177.868,83.002 C177.857,82.969 177.857,82.946 177.857,82.935 C177.857,82.924 177.857,82.924 177.857,82.924 C176.196,71.667 167.992,62.509 157.251,59.468 C156.028,59.12 154.772,58.85 153.481,58.671 C152.145,58.48 150.787,58.379 149.396,58.379 C145.389,58.379 141.562,59.198 138.094,60.691 L138.094,48.267 C138.094,45.057 138.487,41.937 139.228,38.952 C138.857,38.952 139.228,38.94 139.228,38.94 C143.1,23.251 156.488,11.31 172.908,9.615 C189.327,11.31 202.716,23.251 206.577,38.94 C207.25,41.612 207.632,44.406 207.699,47.268 C207.71,47.605 207.71,47.93 207.71,48.267" id="Fill-6" fill="#F6D421"></path>
        <path d="M153.459,68.143 C150.664,68.738 148.094,69.939 145.883,71.6 C143.313,73.519 141.236,76.066 139.878,79.018 C138.734,81.499 138.094,84.248 138.094,87.144 L138.094,125.167 C135.793,125.661 133.403,125.953 130.967,126.009 C130.631,126.02 130.294,126.02 129.958,126.02 L129.958,87.144 C129.958,84.248 130.597,81.499 131.742,79.018 C133.1,76.066 135.176,73.519 137.746,71.6 C140.99,69.153 145.03,67.705 149.396,67.705 C150.787,67.705 152.145,67.851 153.459,68.143" id="Fill-7" fill="#E1AD2D"></path>
        <path d="M168.834,87.144 L168.834,87.783 C168.789,90.769 168.407,93.675 167.712,96.459 C165.972,103.541 162.291,109.859 157.263,114.819 C153.862,118.175 149.844,120.902 145.4,122.833 C143.077,123.843 140.63,124.628 138.094,125.167 L138.094,87.144 C138.094,84.248 138.734,81.499 139.878,79.018 C141.236,76.066 143.313,73.519 145.883,71.6 C148.094,69.939 150.664,68.738 153.459,68.143 C155.209,68.502 156.87,69.119 158.408,69.916 C158.935,70.186 159.462,70.489 159.957,70.825 C160.978,71.476 161.92,72.228 162.785,73.059 C163.009,73.261 163.222,73.474 163.424,73.698 C163.851,74.125 164.244,74.585 164.614,75.045 C164.805,75.292 164.984,75.528 165.164,75.774 C165.635,76.414 166.062,77.099 166.432,77.795 C166.646,78.154 166.836,78.513 167.005,78.895 C167.251,79.4 167.465,79.927 167.667,80.477 C167.868,81.016 168.037,81.566 168.183,82.127 C168.284,82.497 168.374,82.879 168.452,83.26 C168.497,83.485 168.542,83.721 168.575,83.956 C168.62,84.181 168.654,84.417 168.677,84.652 C168.71,84.888 168.732,85.124 168.755,85.37 C168.789,85.572 168.8,85.797 168.812,85.999 L168.812,86.145 C168.812,86.223 168.822,86.302 168.822,86.38 C168.834,86.639 168.834,86.885 168.834,87.144" id="Fill-8" fill="#F6D421"></path>
        <path d="M119.509,126.413 C119.509,126.413 108.162,112.653 90.699,112.653 L90.699,97.592 C91.361,97.761 92.012,97.94 92.663,98.131 C105.255,101.924 115.188,111.857 118.97,124.449 C119.06,124.73 119.138,125.01 119.217,125.291 C119.318,125.661 119.419,126.031 119.509,126.413" id="Fill-9" fill="#F6D421"></path>
        <path d="M119.509,126.413 L90.699,126.413 L90.699,112.653 C108.162,112.653 119.509,126.413 119.509,126.413" id="Fill-10" fill="#E1AD2D"></path>
        <path d="M189.891,47.434 C185.981,48.776 181.293,45.421 179.414,39.944 C177.535,34.475 179.179,28.939 183.08,27.605 C186.988,26.263 191.686,29.618 193.564,35.095 C195.443,40.564 193.791,46.101 189.891,47.434" id="Fill-11" fill="#323330"></path>
        <path d="M186.757,33.942 C188.102,35.976 190.202,36.955 191.448,36.131 C192.695,35.306 192.616,32.99 191.272,30.958 C189.928,28.924 187.827,27.945 186.581,28.769 C185.334,29.594 185.413,31.91 186.757,33.942" id="Fill-12" fill="#F3F3F0"></path>
        <path d="M177.857,82.935 C177.958,83.62 178.037,84.304 178.093,85.011 C177.936,83.833 177.868,83.036 177.857,82.935" id="Fill-13" fill="#F6D421"></path>
        <path d="M0,193.825 L0,190.105 C0,187.344 2.239,185.105 5,185.105 L19.185,185.105 L19.185,193.825 L14.533,193.825 L14.533,221.666 L29.063,221.666 L29.065,219.34 C29.067,216.987 30.975,215.081 33.328,215.081 L37.466,215.081 L37.466,230.323 L0.71,230.323 L0.71,225.997 C0.71,223.643 2.619,221.734 4.973,221.734 L4.973,193.825 L0,193.825" id="Fill-14" fill="#323330"></path>
        <path d="M45.5,189.823 C45.5,186.525 48.085,184.716 50.734,184.716 C53.574,184.716 56.159,186.594 56.159,189.949 C56.159,193.115 53.574,194.988 50.862,194.988 C48.085,194.925 45.5,193.053 45.5,189.823 Z M55.191,198.218 L55.191,222.444 L58.873,222.444 L58.873,230.323 L42.013,230.323 L42.013,222.444 L46.082,222.444 L46.082,205.971 L42.076,205.971 L42.076,203.218 C42.076,200.456 44.314,198.218 47.076,198.218 L55.191,198.218 Z" id="Fill-15" fill="#323330"></path>
        <path d="M76.26,189.691 L76.26,198.544 L84.528,198.544 L84.528,206.229 L76.131,206.229 L76.131,218.763 C76.131,222.702 79.618,223.67 83.366,222.055 L85.562,229.483 C82.461,230.645 80.717,230.839 77.874,230.839 C70.511,230.776 67.281,227.415 67.281,218.763 L67.281,206.229 L61.727,206.229 L61.727,198.544 L67.281,198.544 L67.281,195.15 C67.281,192.595 69.206,190.452 71.745,190.178 L76.26,189.691" id="Fill-16" fill="#323330"></path>
        <path d="M101.788,189.691 L101.788,198.544 L110.057,198.544 L110.057,206.229 L101.659,206.229 L101.659,218.763 C101.659,222.702 105.147,223.67 108.894,222.055 L111.09,229.483 C107.99,230.645 106.246,230.839 103.403,230.839 C96.039,230.776 92.81,227.415 92.81,218.763 L92.81,206.229 L83.845,206.229 L83.845,198.544 L92.81,198.544 L92.81,195.15 C92.81,192.595 94.734,190.452 97.274,190.178 L101.788,189.691" id="Fill-17" fill="#323330"></path>
        <path d="M119.333,185.105 L127.383,185.105 L127.383,222.444 L131.259,222.444 L131.259,230.323 L114.075,230.323 L114.075,222.444 L118.467,222.444 L118.467,192.921 L114.333,192.921 L114.333,190.105 C114.333,187.344 116.571,185.105 119.333,185.105" id="Fill-18" fill="#323330"></path>
        <path d="M160.015,210.62 C160.144,206.681 156.851,205.066 152.845,205.066 C148.903,205.066 145.416,206.875 144.64,210.62 L160.015,210.62 Z M167.187,226.19 C163.696,229.613 157.947,231.229 153.232,231.229 C140.766,231.229 135.533,223.607 135.533,214.044 C135.533,204.035 142.252,197.381 152.78,197.381 C163.439,197.381 170.155,202.999 168.283,217.469 L144.706,217.469 C145.158,220.698 148.064,223.092 153.427,223.092 C156.009,223.092 159.691,222.118 161.887,220.309 L167.187,226.19 Z" id="Fill-19" fill="#323330"></path>
        <path d="M202.869,221.666 L213.591,221.666 C216.239,221.666 220.826,221.408 220.826,216.369 C220.826,212.235 217.468,211.136 213.528,211.136 L202.869,211.136 L202.869,221.666 Z M202.869,202.609 L213.528,202.609 C218.825,202.609 219.922,200.222 219.922,198.092 C219.922,195.051 218.049,193.631 213.591,193.631 L202.869,193.631 L202.869,202.609 Z M188.591,230.323 L188.591,226.513 C188.591,223.801 190.789,221.603 193.501,221.603 L193.501,193.699 L188.723,193.699 L188.723,190.105 C188.723,187.344 190.961,185.105 193.723,185.105 L213.591,185.105 C222.959,185.105 229.481,188.918 229.481,198.349 C229.481,201.253 228.447,204.745 224.185,207.002 C228.643,208.942 230.838,212.562 230.838,217.531 C230.451,228.062 222.507,230.323 213.591,230.323 L188.591,230.323 Z" id="Fill-20" fill="#323330"></path>
        <path d="M239.909,189.823 C239.909,186.525 242.494,184.716 245.143,184.716 C247.982,184.716 250.567,186.594 250.567,189.949 C250.567,193.115 247.982,194.988 245.272,194.988 C242.494,194.925 239.909,193.053 239.909,189.823 Z M249.6,198.218 L249.6,222.444 L253.282,222.444 L253.282,230.323 L236.422,230.323 L236.422,222.444 L240.49,222.444 L240.49,205.971 L236.484,205.971 L236.484,203.218 C236.484,200.456 238.724,198.218 241.484,198.218 L249.6,198.218 Z" id="Fill-21" fill="#323330"></path>
        <path d="M262.595,206.033 L258.46,206.033 L258.46,203.218 C258.46,200.456 260.699,198.218 263.46,198.218 L270.281,198.218 L271.121,201.253 C273.574,198.476 276.678,197.381 280.1,197.381 C282.942,197.381 286.366,198.286 288.82,200.48 L284.623,208.169 C283.008,206.813 280.746,206.165 278.613,206.165 C275.061,206.165 271.573,208.169 271.573,213.787 L271.573,222.57 L276.03,222.57 L276.03,230.323 L257.685,230.323 L257.685,222.57 L262.595,222.57 L262.595,206.033" id="Fill-22" fill="#323330"></path>
        <path d="M298.916,214.239 C298.916,219.536 302.403,222.444 306.927,222.444 C311.062,222.444 315.517,220.119 315.517,214.176 C315.517,207.07 310.48,205.713 307.314,205.713 C302.922,205.713 298.916,208.169 298.916,214.239 Z M329.213,222.313 L329.213,230.323 L321.019,230.323 C318.823,230.323 316.885,228.892 316.239,226.794 L316.034,226.126 C313.32,229.287 310.027,230.907 305.313,230.907 C296.268,230.907 289.809,225.153 289.809,214.37 C289.809,203.13 296.978,197.639 306.022,197.639 C309.639,197.639 313.449,198.544 315.84,201.516 L315.84,192.858 L311.382,192.858 L311.382,190.168 C311.382,187.406 313.62,185.168 316.382,185.168 L324.884,185.168 L324.884,222.313 L329.213,222.313 Z" id="Fill-23" fill="#323330"></path>
    </g>
</svg>