<?xml version="1.0" encoding="UTF-8"?>
<svg width="164px" height="173px" viewBox="0 0 164 173" version="1.1" xmlns="http://www.w3.org/2000/svg" xmlns:xlink="http://www.w3.org/1999/xlink">
    <!-- Generator: Sketch 51.2 (57519) - http://www.bohemiancoding.com/sketch -->
    <title>flip@0.5x</title>
    <desc>Created with Sketch.</desc>
    <defs></defs>
    <g id="flip" stroke="none" stroke-width="1" fill="none" fill-rule="evenodd">
        <path d="M41.1,164.9 C41.1,169.102 62.857,172.507 89.696,172.507 C116.536,172.507 138.294,169.102 138.294,164.9 C138.294,160.7 116.536,157.295 89.696,157.295 C62.857,157.295 41.1,160.7 41.1,164.9" id="Fill-1" fill="#BDBDB8"></path>
        <path d="M126.699,49.273 C126.536,63.067 122.772,75.989 116.312,87.155 C109.516,98.896 99.742,108.692 88.017,115.52 C92.177,109.727 95.108,102.985 96.406,95.715 C96.857,93.204 97.114,90.615 97.153,87.987 C97.161,87.707 97.168,87.427 97.168,87.147 C97.168,86.867 97.161,86.595 97.161,86.323 C97.153,86.222 97.153,86.121 97.146,86.02 C96.655,73.369 87.962,62.794 76.252,59.467 C73.757,58.759 71.121,58.378 68.399,58.378 C62.335,58.378 56.698,60.268 52.056,63.487 C50.967,64.241 49.933,65.065 48.961,65.959 L48.961,48.27 C48.961,45.059 49.35,41.941 50.088,38.955 C49.715,38.948 50.096,38.94 50.096,38.94 C54.272,21.974 69.589,9.394 87.838,9.394 C106.087,9.394 121.404,21.974 125.58,38.94 C126.248,41.614 126.629,44.406 126.699,47.267 C126.715,47.602 126.715,47.936 126.715,48.27 C126.715,48.605 126.715,48.939 126.699,49.273 Z M87.83,87.785 C87.783,90.771 87.402,93.678 86.711,96.462 C84.969,103.545 81.291,109.859 76.268,114.82 C76.26,114.82 76.26,114.82 76.26,114.82 C69.457,121.53 60.204,125.752 49.964,126.008 C49.63,126.016 49.295,126.024 48.961,126.024 L48.961,87.147 C48.961,84.247 49.599,81.494 50.742,79.022 C52.095,76.067 54.17,73.517 56.744,71.596 C59.987,69.155 64.03,67.709 68.399,67.709 C71.65,67.709 74.713,68.509 77.403,69.917 C77.94,70.189 78.461,70.492 78.959,70.827 C79.977,71.48 80.918,72.226 81.789,73.058 C82.006,73.26 82.224,73.47 82.426,73.696 C82.846,74.124 83.243,74.582 83.616,75.049 C83.811,75.29 83.989,75.531 84.16,75.772 C84.635,76.417 85.063,77.094 85.436,77.793 C85.646,78.151 85.832,78.517 86.003,78.89 C86.252,79.403 86.47,79.932 86.664,80.476 C86.866,81.012 87.037,81.564 87.185,82.124 C87.286,82.498 87.371,82.878 87.449,83.259 C87.496,83.485 87.543,83.718 87.573,83.951 C87.62,84.185 87.651,84.418 87.675,84.651 C87.706,84.884 87.737,85.126 87.753,85.367 C87.783,85.577 87.799,85.794 87.807,86.004 L87.807,86.082 C87.814,86.105 87.814,86.121 87.814,86.144 C87.814,86.222 87.822,86.307 87.822,86.385 C87.83,86.642 87.838,86.891 87.838,87.147 C87.838,87.357 87.838,87.567 87.83,87.785 Z M92.004,155.182 L82.285,155.182 L71.79,132.664 C74.402,131.949 76.983,131.117 79.495,130.168 L92.004,155.182 Z M9.695,126.413 L9.695,97.597 C10.356,97.76 11.018,97.939 11.663,98.134 C24.251,101.92 34.188,111.857 37.975,124.445 C38.06,124.726 38.138,125.005 38.215,125.285 C38.317,125.659 38.418,126.032 38.511,126.413 L9.695,126.413 Z M163.049,19.501 L126.481,19.501 C123.612,15.652 120.184,12.231 116.312,9.386 C108.334,3.523 98.482,0.063 87.838,0.063 C64.45,0.063 44.895,16.803 40.541,38.94 C40.486,39.189 40.439,39.445 40.393,39.702 C39.895,42.478 39.631,45.347 39.631,48.27 C39.631,48.644 39.639,49.024 39.647,49.397 C39.639,49.397 39.639,49.397 39.631,49.405 L39.631,107.114 C36.661,103.04 33.068,99.448 28.994,96.478 C23.466,92.434 17.051,89.534 10.1,88.119 C7.075,87.505 3.95,87.17 0.754,87.155 C0.622,87.147 0.497,87.147 0.365,87.147 L0.365,135.743 L48.961,135.743 C49.397,135.743 49.84,135.735 50.275,135.728 C54.793,135.665 59.217,135.23 63.54,134.491 L72.565,155.182 L70.427,155.182 C65.062,155.182 60.708,159.536 60.708,164.9 L119.35,164.9 C119.35,162.218 118.261,159.784 116.504,158.027 C114.739,156.271 112.313,155.182 109.631,155.182 L101.723,155.182 L86.757,127.035 C87.434,126.7 88.103,126.366 88.764,126.024 C105.084,117.533 118.419,104.012 126.715,87.543 C132.5,76.083 135.835,63.191 136.029,49.585 C136.045,49.149 136.045,48.706 136.045,48.27 C136.045,47.835 136.045,47.392 136.029,46.956 C136.015,46.474 135.983,45.992 135.96,45.51 L163.679,21.181 C164.348,20.598 163.936,19.501 163.049,19.501 Z" id="Fill-2" fill="#323330"></path>
        <path d="M112.996,92.014 L113.176,92.115 C114.286,90.51 115.33,88.85 116.307,87.155 C117.104,85.774 117.866,84.36 118.585,82.924 C116.542,86.728 114.69,89.713 112.996,92.014" id="Fill-3" fill="#F6D421"></path>
        <path d="M113.176,92.115 C106.655,101.666 98.047,109.679 88.014,115.515 C92.177,109.724 95.106,102.99 96.408,95.718 C96.857,93.204 97.115,90.611 97.149,87.985 C97.16,87.705 97.172,87.424 97.172,87.144 C97.172,86.863 97.16,86.594 97.16,86.324 C97.149,86.223 97.149,86.122 97.149,86.021 C97.138,85.685 97.115,85.348 97.093,85.011 C97.923,91.172 101.369,107.906 112.996,92.014 L113.176,92.115" id="Fill-4" fill="#E1AD2D"></path>
        <path d="M91.908,9.615 C75.488,11.31 62.1,23.251 58.228,38.94 C58.228,38.94 57.857,38.952 58.228,38.952 C57.487,41.937 57.094,45.057 57.094,48.267 L57.094,60.691 C55.321,61.454 53.626,62.386 52.055,63.485 C50.966,64.237 49.934,65.068 48.958,65.955 L48.958,48.267 C48.958,45.057 49.35,41.937 50.091,38.952 C49.72,38.952 50.091,38.94 50.091,38.94 C54.277,21.971 69.585,9.391 87.834,9.391 C89.214,9.391 90.572,9.458 91.908,9.615" id="Fill-5" fill="#E1AD2D"></path>
        <path d="M126.71,48.267 C126.71,48.604 126.71,48.94 126.699,49.277 C126.554,61.364 123.647,72.767 118.585,82.924 C116.542,86.728 114.69,89.713 112.996,92.014 C111.525,94.023 110.19,95.516 108.967,96.571 C100.538,103.843 97.822,90.398 97.093,85.011 C97.037,84.372 96.97,83.754 96.88,83.137 C96.88,83.092 96.868,83.047 96.868,83.002 C96.857,82.969 96.857,82.946 96.857,82.935 C96.857,82.924 96.857,82.924 96.857,82.924 C95.196,71.667 86.992,62.509 76.251,59.468 C75.028,59.12 73.772,58.85 72.481,58.671 C71.145,58.48 69.787,58.379 68.396,58.379 C64.389,58.379 60.562,59.198 57.094,60.691 L57.094,48.267 C57.094,45.057 57.487,41.937 58.228,38.952 C57.857,38.952 58.228,38.94 58.228,38.94 C62.1,23.251 75.488,11.31 91.908,9.615 C108.327,11.31 121.716,23.251 125.577,38.94 C126.25,41.612 126.632,44.406 126.699,47.268 C126.71,47.605 126.71,47.93 126.71,48.267" id="Fill-6" fill="#F6D421"></path>
        <path d="M72.459,68.143 C69.664,68.738 67.094,69.939 64.883,71.6 C62.313,73.519 60.236,76.066 58.878,79.018 C57.734,81.499 57.094,84.248 57.094,87.144 L57.094,125.167 C54.793,125.661 52.403,125.953 49.967,126.009 C49.631,126.02 49.294,126.02 48.958,126.02 L48.958,87.144 C48.958,84.248 49.597,81.499 50.742,79.018 C52.1,76.066 54.176,73.519 56.746,71.6 C59.99,69.153 64.03,67.705 68.396,67.705 C69.787,67.705 71.145,67.851 72.459,68.143" id="Fill-7" fill="#E1AD2D"></path>
        <path d="M87.834,87.144 L87.834,87.783 C87.789,90.769 87.407,93.675 86.712,96.459 C84.972,103.541 81.291,109.859 76.263,114.819 C72.862,118.175 68.844,120.902 64.4,122.833 C62.077,123.843 59.63,124.628 57.094,125.167 L57.094,87.144 C57.094,84.248 57.734,81.499 58.878,79.018 C60.236,76.066 62.313,73.519 64.883,71.6 C67.094,69.939 69.664,68.738 72.459,68.143 C74.209,68.502 75.87,69.119 77.408,69.916 C77.935,70.186 78.462,70.489 78.957,70.825 C79.978,71.476 80.92,72.228 81.785,73.059 C82.009,73.261 82.222,73.474 82.424,73.698 C82.851,74.125 83.244,74.585 83.614,75.045 C83.805,75.292 83.984,75.528 84.164,75.774 C84.635,76.414 85.062,77.099 85.432,77.795 C85.646,78.154 85.836,78.513 86.005,78.895 C86.251,79.4 86.465,79.927 86.667,80.477 C86.868,81.016 87.037,81.566 87.183,82.127 C87.284,82.497 87.374,82.879 87.452,83.26 C87.497,83.485 87.542,83.721 87.575,83.956 C87.62,84.181 87.654,84.417 87.677,84.652 C87.71,84.888 87.732,85.124 87.755,85.37 C87.789,85.572 87.8,85.797 87.812,85.999 L87.812,86.145 C87.812,86.223 87.822,86.302 87.822,86.38 C87.834,86.639 87.834,86.885 87.834,87.144" id="Fill-8" fill="#F6D421"></path>
        <path d="M38.509,126.413 C38.509,126.413 27.162,112.653 9.699,112.653 L9.699,97.592 C10.361,97.761 11.012,97.94 11.663,98.131 C24.255,101.924 34.188,111.857 37.97,124.449 C38.06,124.73 38.138,125.01 38.217,125.291 C38.318,125.661 38.419,126.031 38.509,126.413" id="Fill-9" fill="#F6D421"></path>
        <path d="M38.509,126.413 L9.699,126.413 L9.699,112.653 C27.162,112.653 38.509,126.413 38.509,126.413" id="Fill-10" fill="#E1AD2D"></path>
        <path d="M108.891,47.434 C104.981,48.776 100.293,45.421 98.414,39.944 C96.535,34.475 98.179,28.939 102.08,27.605 C105.988,26.263 110.686,29.618 112.564,35.095 C114.443,40.564 112.791,46.101 108.891,47.434" id="Fill-11" fill="#323330"></path>
        <path d="M105.757,33.942 C107.102,35.976 109.202,36.955 110.448,36.131 C111.695,35.306 111.616,32.99 110.272,30.958 C108.928,28.924 106.827,27.945 105.581,28.769 C104.334,29.594 104.413,31.91 105.757,33.942" id="Fill-12" fill="#F3F3F0"></path>
        <path d="M96.857,82.935 C96.958,83.62 97.037,84.304 97.093,85.011 C96.936,83.833 96.868,83.036 96.857,82.935" id="Fill-13" fill="#F6D421"></path>
    </g>
</svg>