<svg xmlns="http://www.w3.org/2000/svg" viewBox="0 0 329.33 260.94"><defs><style>.cls-1{fill:#c3c3c3;}.cls-2{fill:#383838;}.cls-3{fill:#fbd800;}.cls-4{fill:#ebb31f;}.cls-5{fill:#f1f1f1;}.cls-6{fill:#737373;}</style></defs><title>little-bird-logo</title><g id="Layer_2" data-name="Layer 2"><ellipse class="cls-1" cx="170.7" cy="164.84" rx="48.6" ry="7.61"/><path class="cls-2" d="M264.72,35.81H228.15A48.62,48.62,0,0,0,218,25.7a48.19,48.19,0,0,0-75.77,29.55c-.05.25-.1.51-.15.76a48.58,48.58,0,0,0-.76,8.57c0,.37,0,.75,0,1.13h0v57.71a48.69,48.69,0,0,0-29.53-19,48.1,48.1,0,0,0-9.35-1H102v48.6h48.6l1.31,0a85.68,85.68,0,0,0,13.26-1.24l9,20.69h-2.14a9.72,9.72,0,0,0-9.72,9.72H221a9.72,9.72,0,0,0-9.72-9.72h-7.91l-15-28.15,2-1a88.18,88.18,0,0,0,38-38.48,86.81,86.81,0,0,0,9.31-38c0-.44,0-.88,0-1.31s0-.88,0-1.31,0-1-.07-1.45l27.72-24.33A1,1,0,0,0,264.72,35.81ZM111.36,142.72V113.91c.66.16,1.32.34,2,.54a39.41,39.41,0,0,1,26.31,26.31c.09.28.16.56.24.84s.2.75.3,1.13Zm82.31,28.77H184L173.46,149c2.61-.72,5.19-1.55,7.71-2.5Zm-4.17-67.4a38.44,38.44,0,0,1-1.12,8.68,38.84,38.84,0,0,1-10.44,18.36h0a38.73,38.73,0,0,1-26.3,11.19l-1,0V103.46a19.44,19.44,0,0,1,28.44-17.23,14.77,14.77,0,0,1,1.56.91,18.71,18.71,0,0,1,2.83,2.23c.22.2.44.41.64.64a17.82,17.82,0,0,1,1.19,1.35c.19.24.37.48.54.72a16.65,16.65,0,0,1,1.28,2,12.2,12.2,0,0,1,.57,1.1,15.83,15.83,0,0,1,.66,1.59,16.92,16.92,0,0,1,.52,1.65c.1.37.19.75.26,1.14,0,.23.09.46.12.69s.08.47.1.7.06.47.08.72a5.88,5.88,0,0,1,.05.64v.08a.17.17,0,0,1,0,.06c0,.08,0,.16,0,.24,0,.26,0,.51,0,.76S189.5,103.88,189.5,104.1Zm38.87-38.51A77.23,77.23,0,0,1,218,103.47a78.17,78.17,0,0,1-28.29,28.36,48.62,48.62,0,0,0,8.39-19.8,47.77,47.77,0,0,0,.75-7.73c0-.28,0-.56,0-.84s0-.55,0-.82c0-.1,0-.2,0-.3a28.75,28.75,0,0,0-48.18-20.06V64.58a38.73,38.73,0,0,1,1.13-9.31c-.37,0,0,0,0,0a38.88,38.88,0,0,1,75.48,0,38.17,38.17,0,0,1,1.12,8.33c0,.33,0,.67,0,1S228.38,65.25,228.37,65.58Z" transform="translate(-20.67 -16.37)"/><path class="cls-3" d="M214.66,108.33l.18.1c1.11-1.6,2.15-3.27,3.13-5,.8-1.38,1.56-2.79,2.28-4.23A76.54,76.54,0,0,1,214.66,108.33Z" transform="translate(-20.67 -16.37)"/><path class="cls-4" d="M214.84,108.43a77.94,77.94,0,0,1-25.16,23.4,48.57,48.57,0,0,0,8.39-19.8,47.51,47.51,0,0,0,.74-7.73c0-.28,0-.56,0-.84s0-.55,0-.82a2.73,2.73,0,0,1,0-.3c0-.34,0-.67-.06-1,.83,6.16,4.28,22.89,15.9,7Z" transform="translate(-20.67 -16.37)"/><path class="cls-4" d="M193.57,25.93a38.9,38.9,0,0,0-33.68,29.33s-.37,0,0,0a38.64,38.64,0,0,0-1.13,9.32V77a28.28,28.28,0,0,0-5,2.79,29.88,29.88,0,0,0-3.1,2.47V64.58a38.64,38.64,0,0,1,1.13-9.32c-.37,0,0,0,0,0A38.89,38.89,0,0,1,189.5,25.7,34.86,34.86,0,0,1,193.57,25.93Z" transform="translate(-20.67 -16.37)"/><path class="cls-3" d="M228.38,64.58c0,.34,0,.67,0,1a77.29,77.29,0,0,1-8.11,33.65,76.54,76.54,0,0,1-5.59,9.09,27.35,27.35,0,0,1-4,4.56c-8.43,7.27-11.14-6.17-11.87-11.56-.06-.64-.12-1.26-.21-1.87,0,0,0-.09,0-.13a.2.2,0,0,1,0-.07h0a28.83,28.83,0,0,0-20.61-23.46,27.76,27.76,0,0,0-3.77-.8,28.77,28.77,0,0,0-15.39,2V64.58a38.64,38.64,0,0,1,1.13-9.32c-.37,0,0,0,0,0a38.9,38.9,0,0,1,33.68-29.33,38.87,38.87,0,0,1,33.67,29.33,37.71,37.71,0,0,1,1.12,8.33C228.38,63.92,228.38,64.24,228.38,64.58Z" transform="translate(-20.67 -16.37)"/><path class="cls-4" d="M174.12,84.45a19.45,19.45,0,0,0-15.36,19v38a38.19,38.19,0,0,1-7.13.84h-1V103.45A19.47,19.47,0,0,1,170.06,84,18.7,18.7,0,0,1,174.12,84.45Z" transform="translate(-20.67 -16.37)"/><path class="cls-3" d="M189.5,103.45v.64a38.11,38.11,0,0,1-1.12,8.68,39,39,0,0,1-22.31,26.37,38.25,38.25,0,0,1-7.31,2.33v-38a19.47,19.47,0,0,1,15.36-19,19.13,19.13,0,0,1,4.95,1.77,14.32,14.32,0,0,1,1.55.91,18.21,18.21,0,0,1,2.83,2.23,8.59,8.59,0,0,1,.64.64,16.74,16.74,0,0,1,1.19,1.35l.55.73a16.46,16.46,0,0,1,1.27,2,10.22,10.22,0,0,1,.57,1.1,18.52,18.52,0,0,1,1.18,3.23c.1.37.19.75.27,1.13,0,.22.09.46.12.7a6.91,6.91,0,0,1,.1.7c0,.24.06.47.08.72a6,6,0,0,1,.06.63v.15c0,.08,0,.16,0,.24C189.5,102.95,189.5,103.2,189.5,103.45Z" transform="translate(-20.67 -16.37)"/><path class="cls-3" d="M140.17,142.72S128.83,129,111.37,129V113.9c.66.17,1.31.35,2,.54a39.4,39.4,0,0,1,26.31,26.32c.09.28.17.56.25.84S140.09,142.34,140.17,142.72Z" transform="translate(-20.67 -16.37)"/><path class="cls-4" d="M140.17,142.72H111.37V129C128.83,129,140.17,142.72,140.17,142.72Z" transform="translate(-20.67 -16.37)"/><path class="cls-2" d="M210.56,63.75c-3.91,1.34-8.6-2-10.48-7.49s-.23-11,3.67-12.34,8.61,2,10.49,7.49S214.46,62.41,210.56,63.75Z" transform="translate(-20.67 -16.37)"/><ellipse class="cls-5" cx="209.68" cy="48.76" rx="2.71" ry="4.41" transform="translate(-12.78 107.37) rotate(-33.47)"/><path class="cls-3" d="M198.52,99.25c.1.68.18,1.37.24,2.08C198.6,100.14,198.53,99.35,198.52,99.25Z" transform="translate(-20.67 -16.37)"/><path class="cls-2" d="M20.67,210.14v-3.72a5,5,0,0,1,5-5H39.85v8.72H35.2V238H49.73v-2.33A4.26,4.26,0,0,1,54,231.39h4.14v15.24H21.38v-4.33A4.26,4.26,0,0,1,25.64,238h0V210.14Z" transform="translate(-20.67 -16.37)"/><path class="cls-2" d="M75.86,214.53v24.23h3.68v7.88H62.68v-7.88h4.07V222.28h-4v-2.75a5,5,0,0,1,5-5Zm-9.69-8.39A5,5,0,0,1,71.4,201a5.14,5.14,0,0,1,5.43,5.23,5.06,5.06,0,0,1-5.3,5A5.18,5.18,0,0,1,66.17,206.13Z" transform="translate(-20.67 -16.37)"/><path class="cls-2" d="M96.93,206v8.85h8.27v7.68H96.8v12.53c0,3.94,3.49,4.91,7.23,3.29l2.2,7.43a18.64,18.64,0,0,1-7.69,1.36c-7.36-.06-10.59-3.42-10.59-12.08V222.54H82.39v-7.68h5.55v-3.39a5,5,0,0,1,4.46-5Z" transform="translate(-20.67 -16.37)"/><path class="cls-2" d="M122.45,206v8.85h8.27v7.68h-8.4v12.53c0,3.94,3.49,4.91,7.23,3.29l2.2,7.43a18.64,18.64,0,0,1-7.69,1.36c-7.36-.06-10.59-3.42-10.59-12.08V222.54h-9v-7.68h9v-3.39a5,5,0,0,1,4.46-5Z" transform="translate(-20.67 -16.37)"/><path class="cls-2" d="M140,201.42h8v37.34h3.88v7.88H134.74v-7.88h4.39V209.23H135v-2.82A5,5,0,0,1,140,201.42Z" transform="translate(-20.67 -16.37)"/><path class="cls-2" d="M187.85,242.5c-3.49,3.42-9.24,5-14,5-12.47,0-17.7-7.62-17.7-17.18,0-10,6.72-16.66,17.25-16.66s17.38,5.62,15.5,20.09H165.37c.45,3.23,3.36,5.62,8.72,5.62a14.71,14.71,0,0,0,8.46-2.78Zm-7.17-15.57c.13-3.94-3.16-5.55-7.17-5.55s-7.43,1.81-8.21,5.55Z" transform="translate(-20.67 -16.37)"/><path class="cls-2" d="M209.26,246.63v-3.81a4.91,4.91,0,0,1,4.91-4.91h0V210h-4.78v-3.59a5,5,0,0,1,5-5h19.87c9.37,0,15.89,3.81,15.89,13.24a9.27,9.27,0,0,1-5.3,8.65c4.46,1.94,6.65,5.56,6.65,10.53-.39,10.53-8.33,12.79-17.25,12.79Zm14.28-27.71h10.66c5.3,0,6.39-2.39,6.39-4.52,0-3-1.87-4.46-6.33-4.46H223.54Zm0,19.06h10.72c2.65,0,7.23-.26,7.23-5.3,0-4.13-3.36-5.23-7.3-5.23H223.54Z" transform="translate(-20.67 -16.37)"/><path class="cls-2" d="M270.27,214.53v24.23h3.68v7.88H257.09v-7.88h4.07V222.28h-4v-2.75a5,5,0,0,1,5-5Zm-9.69-8.39a5,5,0,0,1,5.23-5.11,5.14,5.14,0,0,1,5.43,5.23,5.06,5.06,0,0,1-5.3,5A5.18,5.18,0,0,1,260.58,206.13Z" transform="translate(-20.67 -16.37)"/><path class="cls-2" d="M283.26,222.35h-4.13v-2.82a5,5,0,0,1,5-5h6.82l.84,3a11.41,11.41,0,0,1,9-3.87,13.4,13.4,0,0,1,8.72,3.1l-4.2,7.69a9.49,9.49,0,0,0-6-2c-3.55,0-7,2-7,7.62v8.78h4.46v7.75H278.35v-7.75h4.91Z" transform="translate(-20.67 -16.37)"/><path class="cls-2" d="M349.88,238.62v8h-8.19a5,5,0,0,1-4.78-3.53l-.21-.67A13.09,13.09,0,0,1,326,247.22c-9,0-15.5-5.75-15.5-16.54,0-11.24,7.17-16.73,16.21-16.73,3.62,0,7.43.9,9.82,3.88v-8.66H332v-2.69a5,5,0,0,1,5-5h8.5v37.14Zm-30.3-8.07c0,5.3,3.49,8.21,8,8.21,4.13,0,8.59-2.32,8.59-8.27,0-7.11-5-8.46-8.2-8.46C323.59,222,319.58,224.48,319.58,230.55Z" transform="translate(-20.67 -16.37)"/><path class="cls-6" d="M36.45,276.92H21.38v-21h14.8v2H23.48v7.54H35.61v2H23.48v7.56h13Z" transform="translate(-20.67 -16.37)"/><path class="cls-6" d="M55.17,255.9v19H66.85v2H53.07v-21Z" transform="translate(-20.67 -16.37)"/><path class="cls-6" d="M97.37,276.92H82.3v-21H97.1v2H84.4v7.54H96.53v2H84.4v7.56h13Z" transform="translate(-20.67 -16.37)"/><path class="cls-6" d="M131,274.07a10.68,10.68,0,0,1-7.66,3.18c-7.27,0-10.9-4.86-10.93-10.72S116,255.6,123.33,255.6a9.66,9.66,0,0,1,7.45,3.15L129.49,260a8.7,8.7,0,0,0-6.15-2.52c-5.86,0-8.83,4.32-8.83,9,0,4.93,3,8.8,8.83,8.8a9.07,9.07,0,0,0,6.31-2.58Z" transform="translate(-20.67 -16.37)"/><path class="cls-6" d="M152,257.88h-7.42v-2h16.93v2h-7.42v19H152Z" transform="translate(-20.67 -16.37)"/><path class="cls-6" d="M194.2,276.92h-2.73l-7-7.75h-5.43v7.75H177v-21h9.43c4.68,0,6.94,3.12,7,6.67,0,3.27-1.89,6.24-6.34,6.45Zm-15.13-19v9.31h7.21c3.36,0,5-2,5-4.62s-1.62-4.68-4.86-4.68Z" transform="translate(-20.67 -16.37)"/><path class="cls-6" d="M230.19,266.47c0,5.5-3.51,10.84-10.63,10.84S208.9,272,208.9,266.44c0-5.92,3.84-10.9,10.66-10.9C226.68,255.57,230.22,260.86,230.19,266.47Zm-10.63,8.86c5.73,0,8.5-4.35,8.53-8.86,0-4.71-2.79-8.92-8.53-8.95s-8.62,4-8.56,8.95C211.06,271.06,213.82,275.33,219.56,275.33Z" transform="translate(-20.67 -16.37)"/><path class="cls-6" d="M261.62,273l-.12-7V255.9h2.1v21h-1.26L248.74,260l.06,6.21v10.69h-2.1v-21H248Z" transform="translate(-20.67 -16.37)"/><path class="cls-6" d="M281.45,276.92v-21h2.1v21Z" transform="translate(-20.67 -16.37)"/><path class="cls-6" d="M318.67,274.07a10.68,10.68,0,0,1-7.66,3.18c-7.27,0-10.9-4.86-10.93-10.72S303.71,255.6,311,255.6a9.66,9.66,0,0,1,7.45,3.15L317.16,260a8.7,8.7,0,0,0-6.15-2.52c-5.86,0-8.83,4.32-8.83,9,0,4.93,3,8.8,8.83,8.8a9.07,9.07,0,0,0,6.31-2.58Z" transform="translate(-20.67 -16.37)"/><path class="cls-6" d="M347.63,260.23c-1.23-2-3.81-2.64-6-2.67-2.58,0-5.91.75-5.91,3.84,0,2.46,2.7,3.12,6,3.69,4.14.72,8.35,1.65,8.35,6.13,0,4.74-4.59,6-8.41,6-3.54,0-7.15-1.29-8.77-4.66l1.83-1c1.44,2.7,4.38,3.63,6.94,3.63s6.28-.69,6.28-4.05c0-2.85-3.15-3.57-6.43-4.14-4-.69-7.87-1.56-7.87-5.64-.06-4.42,4.44-5.83,8-5.83,2.88,0,6,.78,7.84,3.66Z" transform="translate(-20.67 -16.37)"/></g></svg>